<?xml version="1.0" standalone="no"?>
<!DOCTYPE svg PUBLIC "-//W3C//DTD SVG 20010904//EN"
 "http://www.w3.org/TR/2001/REC-SVG-20010904/DTD/svg10.dtd">
<svg version="1.0" xmlns="http://www.w3.org/2000/svg"
 width="5000.000000pt" height="5000.000000pt" viewBox="0 0 5000.000000 5000.000000"
 preserveAspectRatio="xMidYMid meet">
 <defs>
    <linearGradient id="grad1" x1="0%" y1="0%" x2="100%" y2="0%">
      <stop offset="0%" style="stop-color:#3aa8e3;stop-opacity:1" />
      <stop offset="100%" style="stop-color:#7553ff;stop-opacity:1" />
    </linearGradient>
  </defs>
<g transform="translate(0.000000,5000.000000) scale(0.100000,-0.100000)"
fill="url(#grad1)" stroke="none">
<path d="M15710 41573 c-457 -24 -730 -52 -1135 -118 -727 -118 -1438 -325
-2134 -622 -1498 -638 -2803 -1648 -3803 -2943 -1026 -1329 -1684 -2925 -1892
-4591 -71 -570 -79 -851 -73 -2728 5 -1592 6 -1639 58 -2096 190 -1688 818
-3270 1842 -4638 446 -596 993 -1166 1567 -1633 712 -580 1475 -1038 2320
-1393 233 -98 342 -139 715 -267 217 -74 300 -106 299 -117 -1 -8 -71 -136
-157 -283 -475 -824 -1009 -1870 -1727 -3384 -325 -686 -442 -939 -465 -1005
-25 -73 -31 -242 -11 -327 43 -183 163 -335 329 -416 92 -44 171 -62 278 -62
172 0 -45 -92 2194 933 644 294 1229 562 1300 595 72 33 708 324 1415 647 707
323 1735 793 2285 1045 1134 519 2835 1297 3335 1525 184 84 444 203 577 264
l242 111 1548 0 c870 0 1636 5 1748 10 1837 90 3567 694 5054 1764 1127 811
2077 1876 2751 3086 617 1107 997 2297 1140 3565 52 465 53 501 57 2105 5
1525 -1 1893 -32 2286 -204 2543 -1432 4893 -3415 6534 -671 555 -1472 1047
-2270 1392 -468 203 -1043 396 -1497 503 -606 142 -1140 219 -1767 255 -157 9
-10508 12 -10676 3z m10829 -1266 c273 -24 365 -35 586 -68 1555 -234 2984
-899 4195 -1953 137 -118 578 -557 711 -706 479 -538 914 -1182 1233 -1830
464 -939 728 -1894 823 -2980 16 -188 18 -353 18 -1945 0 -1853 1 -1822 -50
-2259 -228 -1944 -1154 -3749 -2605 -5081 -1169 -1073 -2583 -1769 -4150
-2044 -175 -31 -566 -78 -745 -91 -88 -6 -180 -13 -205 -17 -25 -3 -835 -8
-1800 -12 -1676 -6 -1757 -7 -1805 -25 -51 -19 -1363 -617 -3600 -1641 -3926
-1797 -6086 -2785 -6104 -2793 -13 -5 567 1156 794 1588 486 926 792 1462 989
1728 44 60 76 93 117 117 216 132 332 395 285 645 -36 194 -163 364 -337 449
-72 35 -116 47 -312 86 -532 105 -976 234 -1452 420 -1304 509 -2458 1351
-3352 2445 -992 1214 -1617 2696 -1793 4248 -45 405 -45 388 -45 2257 0 1950
-2 1866 61 2345 218 1655 931 3193 2057 4438 269 297 651 655 987 923 922 737
2035 1280 3170 1549 482 114 1010 192 1485 219 83 4 2515 7 5405 7 4793 -2
5271 -4 5439 -19z"/>
<path d="M13430 32379 c-123 -14 -228 -38 -368 -85 -255 -85 -471 -215 -660
-398 -282 -273 -439 -557 -524 -946 -20 -93 -22 -133 -22 -345 0 -264 10 -337
76 -544 82 -258 265 -553 455 -732 345 -325 776 -499 1240 -499 285 0 527 54
771 172 264 128 514 339 684 578 81 113 196 340 237 465 300 921 -173 1900
-1080 2235 -248 92 -549 129 -809 99z"/>
<path d="M20826 32379 c-113 -12 -222 -36 -348 -76 -616 -195 -1081 -718
-1208 -1359 -28 -138 -38 -401 -21 -541 94 -766 646 -1372 1406 -1540 139 -30
430 -42 581 -23 126 15 334 69 446 114 824 334 1277 1217 1067 2078 -112 457
-398 847 -809 1101 -318 196 -728 287 -1114 246z"/>
<path d="M28215 32380 c-603 -65 -1155 -460 -1415 -1013 -236 -502 -226 -1077
26 -1567 227 -441 623 -768 1096 -905 187 -55 309 -68 543 -62 160 5 222 11
310 30 313 70 584 207 822 416 318 281 531 687 584 1115 17 141 6 432 -21 561
-72 339 -231 642 -464 883 -271 279 -610 460 -986 527 -111 19 -380 27 -495
15z"/>
<path d="M35740 35754 c0 -3 27 -80 59 -172 261 -740 449 -1585 535 -2412 53
-506 58 -746 53 -2540 -4 -1691 -5 -1715 -52 -2170 -162 -1533 -638 -2973
-1413 -4275 -648 -1088 -1516 -2083 -2492 -2857 -1472 -1167 -3179 -1907
-5010 -2172 -696 -101 -1065 -116 -2884 -116 l-1259 0 -146 -66 c-195 -88
-2635 -1203 -3521 -1609 -388 -177 -885 -405 -1105 -505 -220 -100 -402 -185
-405 -187 -9 -9 192 -174 445 -364 1329 -1001 2941 -1640 4599 -1824 445 -49
417 -48 2201 -54 l1700 -6 485 -224 c476 -219 2327 -1067 3360 -1539 289 -132
899 -411 1355 -620 798 -365 1795 -821 4588 -2098 714 -327 1320 -601 1345
-610 71 -25 261 -31 342 -10 208 54 377 210 444 410 39 117 39 276 0 392 -35
104 -683 1467 -1071 2254 -471 955 -824 1622 -1195 2258 -49 85 -88 156 -86
158 2 2 134 48 294 103 487 167 741 268 1111 443 795 375 1522 854 2208 1452
325 283 795 775 1092 1143 1178 1456 1906 3258 2067 5123 34 394 38 613 33
2285 -4 1714 -4 1714 -47 2117 -145 1369 -577 2668 -1283 3853 -611 1025
-1459 1971 -2412 2691 -517 390 -964 666 -1533 948 -722 356 -1453 610 -2219
772 -171 36 -183 37 -183 28z"/>
</g>
</svg>
